SplineFontDB: 3.0
FontName: Avara
FullName: Avara
FamilyName: Avara
Weight: Bold
Copyright: Created by Raphael Bastide with FontForge 2.0 (http://fontforge.sf.net)
UComments: "2011-11-3: Created." 
Version: 001.000
ItalicAngle: 0
UnderlinePosition: -100
UnderlineWidth: 50
Ascent: 800
Descent: 200
LayerCount: 2
Layer: 0 0 "Back"  1
Layer: 1 0 "Fore"  0
NeedsXUIDChange: 1
XUID: [1021 366 1577494475 15714092]
OS2Version: 0
OS2_WeightWidthSlopeOnly: 0
OS2_UseTypoMetrics: 1
CreationTime: 1320277816
ModificationTime: 1320284538
OS2TypoAscent: 0
OS2TypoAOffset: 1
OS2TypoDescent: 0
OS2TypoDOffset: 1
OS2TypoLinegap: 0
OS2WinAscent: 0
OS2WinAOffset: 1
OS2WinDescent: 0
OS2WinDOffset: 1
HheadAscent: 0
HheadAOffset: 1
HheadDescent: 0
HheadDOffset: 1
OS2Vendor: 'PfEd'
DEI: 91125
Encoding: ISO8859-1
UnicodeInterp: none
NameList: Adobe Glyph List
DisplaySize: -24
AntiAlias: 1
FitToEm: 1
WinInfo: 64 16 4
Grid
-1000 -322 m 0
 2000 -322 l 0
  Named: "descent" 
-1000 558 m 0
 2000 558 l 0
  Named: "lowercaseTop" 
EndSplineSet
BeginChars: 256 21

StartChar: R
Encoding: 82 82 0
Width: 986
VWidth: 0
Flags: HW
LayerCount: 2
Fore
SplineSet
0 800 m 1
 360 799.945 l 1
 560 759.945 l 1
 640 599.945 l 1
 560 439.945 l 1
 400 399.898 l 1
 480 359.891 l 1
 680 -0.109375 l 1
 520 -0.101562 l 1
 480 39.8984 l 1
 320 359.891 l 1
 200 400.008 l 1
 200 79.9766 l 1
 280 -0.078125 l 1
 0 0 l 1
 80 80 l 1
 80 720 l 1
 0 800 l 1
240 760 m 1
 200 720 l 1
 200 440 l 1
 360 440 l 1
 440 480 l 1
 480 600 l 1
 440 720 l 1
 360 760 l 1
 240 760 l 1
EndSplineSet
EndChar

StartChar: B
Encoding: 66 66 1
Width: 1023
VWidth: 0
Flags: HW
LayerCount: 2
Fore
SplineSet
0 819 m 1
 369 819 l 1
 573 778 l 1
 655 614 l 1
 573 450 l 1
 450 409 l 1
 614 369 l 1
 696 205 l 1
 614 41 l 1
 450 0 l 1
 0 0 l 1
 81 81 l 1
 81 737 l 1
 0 819 l 1
245 778 m 1
 205 737 l 1
 205 450 l 1
 369 450 l 1
 450 492 l 1
 492 614 l 1
 450 737 l 1
 369 778 l 1
 245 778 l 1
205 409 m 1
 205 81 l 1
 245 41 l 1
 409 41 l 1
 492 82 l 1
 532 205 l 1
 492 328 l 1
 369 369 l 1
 205 409 l 1
EndSplineSet
EndChar

StartChar: a
Encoding: 97 97 2
Width: 520
VWidth: 0
Flags: HW
LayerCount: 2
Fore
SplineSet
160 562 m 1
 280 562 l 1
 440 482 l 1
 440 82 l 1
 520 82 l 1
 520 42 l 1
 400 2 l 1
 320 82 l 1
 280 42 l 1
 120 2 l 1
 40 162 l 1
 40 282 l 1
 320 362 l 1
 320 442 l 1
 280 522 l 1
 160 482 l 1
 120 402 l 1
 40 482 l 1
 160 562 l 1
320 322 m 1
 160 241.945 l 1
 160 162 l 1
 240 82 l 1
 320 162 l 1
 320 322 l 1
EndSplineSet
EndChar

StartChar: edieresis
Encoding: 235 235 3
Width: 1000
VWidth: 0
Flags: H
LayerCount: 2
Fore
SplineSet
200 558 m 1
 280 558 l 1
 400 518 l 1
 480 358 l 1
 440 278 l 1
 120 237.945 l 1
 160 78 l 1
 280 38 l 1
 360 78 l 1
 400 158 l 1
 480 118 l 1
 400 38 l 1
 320 -2 l 1
 200 -2 l 1
 80 38 l 1
 0 198 l 1
 0 358 l 1
 80 518 l 1
 200 558 l 1
240 518 m 1
 160 478 l 1
 120 277.945 l 1
 320 318 l 1
 320 478 l 1
 240 518 l 1
360 718.031 m 1
 400 678.062 l 1
 400 638.062 l 1
 360 598.031 l 1
 280 598.031 l 1
 280 678.031 l 1
 320 718.031 l 1
 360 718.031 l 1
159.438 718.219 m 1
 199.812 678.586 l 1
 200.562 598.594 l 1
 120.562 597.852 l 1
 80.1875 637.445 l 1
 79.8125 677.445 l 1
 119.438 717.844 l 1
 159.438 718.219 l 1
EndSplineSet
EndChar

StartChar: g
Encoding: 103 103 4
Width: 1000
VWidth: 0
Flags: H
LayerCount: 2
Fore
SplineSet
520 598 m 1
 560 478 l 1
 520 478 l 1
 416 494 l 1
 480 398 l 1
 480 278 l 1
 440 238 l 1
 320 158 l 1
 200 118 l 1
 400 38 l 1
 520 -82 l 1
 520 -162 l 1
 440 -282 l 1
 320 -322 l 1
 240 -322 l 1
 80 -282 l 1
 0 -162 l 1
 0 -82 l 1
 160 38 l 1
 40 78 l 1
 80 118 l 1
 200 158 l 1
 80 198 l 1
 0 278 l 1
 0 398 l 1
 80 518 l 1
 200 558 l 1
 280 558 l 1
 400 518 l 1
 440 558 l 1
 520 598 l 1
240 518 m 1
 160 478 l 1
 120 358 l 1
 160 238 l 1
 240 198 l 1
 320 238 l 1
 360 358 l 1
 320 478 l 1
 240 518 l 1
200 -2 m 1
 120 -82 l 1
 120 -162 l 1
 200 -242 l 1
 360 -282 l 1
 400 -202 l 1
 400 -122 l 1
 320 -42 l 1
 200 -2 l 1
EndSplineSet
EndChar

StartChar: edieresis
Encoding: 235 235 5
Width: 1104
VWidth: 0
Flags: HW
LayerCount: 2
Fore
SplineSet
200 560 m 5
 280 560 l 5
 400 520 l 5
 480 360 l 5
 440 280 l 5
 120 239.945 l 5
 160 80 l 5
 280 40 l 5
 360 80 l 5
 400 160 l 5
 480 120 l 5
 400 40 l 5
 320 0 l 5
 200 0 l 5
 80 40 l 5
 0 200 l 5
 0 360 l 5
 80 520 l 5
 200 560 l 5
240 520 m 5
 160 480 l 5
 120 279.945 l 5
 320 320 l 5
 320 480 l 5
 240 520 l 5
360 720.031 m 5
 400 680.062 l 5
 400 640.062 l 5
 360 600.031 l 5
 280 600.031 l 5
 280 680.031 l 5
 320 720.031 l 5
 360 720.031 l 5
159.438 720.219 m 5
 199.812 680.586 l 5
 200.562 600.594 l 5
 120.562 599.852 l 5
 80.1875 639.445 l 5
 79.8125 679.445 l 5
 119.438 719.844 l 5
 159.438 720.219 l 5
EndSplineSet
EndChar

StartChar: g
Encoding: 103 103 6
Width: 652
VWidth: 0
Flags: HW
LayerCount: 2
Fore
SplineSet
520 598 m 1
 560 478 l 1
 520 478 l 1
 416 494 l 1
 480 398 l 1
 480 278 l 1
 440 238 l 1
 320 158 l 1
 200 118 l 1
 400 38 l 1
 520 -82 l 1
 520 -162 l 1
 440 -282 l 1
 320 -322 l 1
 240 -322 l 1
 80 -282 l 1
 0 -162 l 1
 0 -82 l 1
 160 38 l 1
 40 78 l 1
 80 118 l 1
 200 158 l 1
 80 198 l 1
 0 278 l 1
 0 398 l 1
 80 518 l 1
 200 558 l 1
 280 558 l 1
 400 518 l 1
 440 558 l 1
 520 598 l 1
240 518 m 1
 160 478 l 1
 120 358 l 1
 160 238 l 1
 240 198 l 1
 320 238 l 1
 360 358 l 1
 320 478 l 1
 240 518 l 1
200 -2 m 1
 120 -82 l 1
 120 -162 l 1
 200 -242 l 1
 360 -282 l 1
 400 -202 l 1
 400 -122 l 1
 320 -42 l 1
 200 -2 l 1
EndSplineSet
EndChar

StartChar: t
Encoding: 116 116 7
Width: 360
VWidth: 0
Flags: HW
LayerCount: 2
Fore
SplineSet
240 719.977 m 1
 240 559.977 l 1
 320 559.977 l 1
 320 519.977 l 1
 240 519.977 l 1
 240 79.9766 l 1
 280 39.9766 l 1
 280 40.0547 l 1
 320 120.031 l 1
 360 80.0312 l 1
 320 0 l 1
 200 0 l 1
 120 80.0547 l 1
 120 520 l 1
 40 520 l 1
 40 560 l 1
 120 560 l 1
 200 720.055 l 1
 240 719.977 l 1
EndSplineSet
EndChar

StartChar: p
Encoding: 112 112 8
Width: 630
VWidth: 0
Flags: HW
LayerCount: 2
Fore
SplineSet
40 558 m 1
 120 557.945 l 1
 200 517.945 l 1
 320 558 l 1
 400 558 l 1
 520 518 l 1
 600 358 l 1
 600 198 l 1
 520 38 l 1
 400 -2 l 1
 320 -2 l 1
 240 24.75 l 1
 240 -242 l 1
 320 -322 l 1
 40 -322 l 1
 120 -242 l 1
 120 478 l 1
 40 558 l 1
360 518 m 1
 280 478 l 1
 240 397.945 l 1
 240 157.945 l 1
 280 78 l 1
 360 38 l 1
 440 78 l 1
 480 278 l 1
 440 478 l 1
 360 518 l 1
EndSplineSet
EndChar

StartChar: o
Encoding: 111 111 9
Width: 520
VWidth: 0
Flags: HWO
LayerCount: 2
Fore
SplineSet
240 558 m 1
 320 558 l 1
 440 518 l 1
 520 358 l 1
 520 198 l 1
 440 38 l 1
 320 -2 l 1
 240 -2 l 1
 120 38 l 1
 40 198 l 1
 40 358 l 1
 120 518 l 1
 240 558 l 1
280 518 m 1
 200 478 l 1
 160 278 l 1
 200 78 l 1
 280 38 l 1
 360 78 l 1
 400 278 l 1
 360 478 l 1
 280 518 l 1
EndSplineSet
EndChar

StartChar: r
Encoding: 114 114 10
Width: 560
VWidth: 0
Flags: HW
LayerCount: 2
Fore
SplineSet
210 557.945 m 1
 210 398 l 1
 210 397.922 l 1
 290 517.977 l 1
 450 557.977 l 1
 530 437.922 l 1
 410 357.922 l 1
 370 437.922 l 1
 330 438 l 1
 210 317.945 l 1
 210 78 l 1
 290 -2 l 1
 10 -2 l 1
 90 78 l 1
 90 438 l 1
 10 478 l 1
 210 557.945 l 1
EndSplineSet
EndChar

StartChar: s
Encoding: 115 115 11
Width: 1000
VWidth: 0
Flags: H
LayerCount: 2
Fore
SplineSet
360 396 m 1
 320 516 l 1
 240 516 l 1
 160 476 l 1
 160 396 l 1
 440 276 l 1
 480 196 l 1
 400 36 l 1
 200 -4 l 1
 80 36 l 1
 0 116 l 1
 80 196 l 1
 120 76.0547 l 1
 200 36 l 1
 320 76 l 1
 360 116 l 1
 360 156 l 1
 80 316 l 1
 40 396 l 1
 80 516 l 1
 200 556 l 1
 360 556 l 1
 440 476 l 1
 360 396 l 1
EndSplineSet
EndChar

StartChar: u
Encoding: 117 117 12
Width: 1000
VWidth: 0
Flags: H
LayerCount: 2
Fore
SplineSet
576 39.9531 m 1
 456 -0.078125 l 1
 376 80 l 1
 376 80 l 1
 336 40 l 1
 256 0 l 1
 96 40 l 1
 56 120 l 1
 56 480 l 1
 16 519.945 l 1
 176 559.945 l 1
 176 120 l 1
 216 80 l 1
 296 80 l 1
 376 200 l 1
 376 479.945 l 1
 336 520 l 1
 496 559.922 l 1
 496 79.9219 l 1
 576 79.9219 l 1
 576 39.9531 l 1
EndSplineSet
EndChar

StartChar: e
Encoding: 101 101 13
Width: 520
VWidth: 0
Flags: HW
LayerCount: 2
Fore
SplineSet
240 560 m 1
 320 560 l 1
 440 520 l 1
 520 360 l 1
 480 280 l 1
 160 239.945 l 1
 200 80 l 1
 320 40 l 1
 400 80 l 1
 440 160 l 1
 520 120 l 1
 440 40 l 1
 360 0 l 1
 240 0 l 1
 120 40 l 1
 40 200 l 1
 40 360 l 1
 120 520 l 1
 240 560 l 1
280 520 m 1
 200 480 l 1
 160 279.945 l 1
 360 320 l 1
 360 480 l 1
 280 520 l 1
EndSplineSet
EndChar

StartChar: i
Encoding: 105 105 14
Width: 1000
VWidth: 0
Flags: H
LayerCount: 2
Fore
SplineSet
0 480 m 1
 200 560 l 1
 200 80 l 1
 280 0 l 1
 0 0 l 1
 80 80 l 1
 80 440 l 1
 0 480 l 1
120 600.055 m 1
 40 640.055 l 1
 40 680.055 l 1
 80 760.055 l 1
 120 760.055 l 1
 200 720.055 l 1
 200 680.055 l 1
 160 600.055 l 1
 120 600.055 l 1
EndSplineSet
EndChar

StartChar: h
Encoding: 104 104 15
Width: 1000
VWidth: 0
Flags: HO
LayerCount: 2
Fore
SplineSet
0 799.945 m 1
 200 839.977 l 1
 200 439.922 l 1
 280 519.922 l 1
 360 559.922 l 1
 520 519.922 l 1
 560 439.922 l 1
 560 79.9219 l 1
 640 -0.078125 l 1
 360 -0.078125 l 1
 440 79.9219 l 1
 440 439.922 l 1
 400 479.922 l 1
 320 479.922 l 1
 200 359.922 l 1
 200 79.9766 l 1
 280 -0.078125 l 1
 160 0 l 1
 80 0 l 1
 0 0 l 1
 80 80 l 1
 80 760 l 1
 0 799.945 l 1
EndSplineSet
EndChar

StartChar: l
Encoding: 108 108 16
Width: 320
VWidth: 0
Flags: HWO
LayerCount: 2
Fore
SplineSet
40 799.945 m 1
 240 839.977 l 1
 240 79.9766 l 1
 320 -0.078125 l 1
 200 0 l 1
 120 0 l 1
 40 0 l 1
 120 80 l 1
 120 760 l 1
 40 799.945 l 1
EndSplineSet
EndChar

StartChar: m
Encoding: 109 109 17
Width: 1000
VWidth: 0
Flags: HO
LayerCount: 2
Fore
SplineSet
200 560 m 1
 200 560.008 l 1
 200 439.758 l 1
 280 519.758 l 1
 360 559.758 l 1
 520 519.758 l 1
 560 439.758 l 1
 640 519.758 l 1
 720 559.758 l 1
 880 519.758 l 1
 920 439.758 l 1
 920 79.7578 l 1
 1000 -0.242188 l 1
 720 -0.242188 l 1
 800 79.7578 l 1
 800 439.758 l 1
 760 479.758 l 1
 680 479.758 l 1
 560 359.758 l 1
 560 79.7578 l 1
 640 -0.242188 l 1
 360 -0.242188 l 1
 360 0.0078125 l 1
 360.25 0.0078125 l 1
 440 79.7578 l 1
 440 80.0078 l 1
 440 439.758 l 1
 400 479.758 l 1
 320 479.758 l 1
 200 359.758 l 1
 200 80.0078 l 1
 280 -0.242188 l 1
 160 0 l 1
 80 0 l 1
 0 0 l 1
 80 80 l 1
 80 480 l 1
 0 520 l 1
 200 560 l 1
EndSplineSet
EndChar

StartChar: n
Encoding: 110 110 18
Width: 680
VWidth: 0
Flags: HWO
LayerCount: 2
Fore
SplineSet
40 519.945 m 5
 240 559.977 l 5
 240 439.922 l 5
 320 519.922 l 5
 400 559.922 l 5
 560 519.922 l 5
 600 439.922 l 5
 600 79.9219 l 5
 680 -0.078125 l 5
 400 -0.078125 l 5
 480 79.9219 l 5
 480 439.922 l 5
 440 479.922 l 5
 360 479.922 l 5
 240 359.922 l 5
 240 79.9766 l 5
 320 -0.078125 l 5
 200 0 l 5
 120 0 l 5
 40 0 l 5
 120 80 l 5
 120 480 l 5
 40 519.945 l 5
EndSplineSet
EndChar

StartChar: q
Encoding: 113 113 19
Width: 1000
VWidth: 0
Flags: HO
LayerCount: 2
Fore
SplineSet
560 558 m 1
 480 478 l 1
 480 -242 l 1
 560 -322 l 1
 280 -322 l 1
 360 -242 l 1
 360 24.75 l 1
 280 -2 l 1
 200 -2 l 1
 80 38 l 1
 0 198 l 1
 0 358 l 1
 80 518 l 1
 200 558 l 1
 280 558 l 1
 400 517.945 l 1
 480 557.945 l 1
 560 558 l 1
240 518 m 1
 160 478 l 1
 120 278 l 1
 160 78 l 1
 240 38 l 1
 320 78 l 1
 360 157.945 l 1
 360 397.945 l 1
 320 478 l 1
 240 518 l 1
EndSplineSet
EndChar

StartChar: d
Encoding: 100 100 20
Width: 600
VWidth: 0
Flags: HWO
LayerCount: 2
Fore
SplineSet
520 838 m 1
 520 358 l 1
 520 198 l 1
 520 78 l 1
 600 -2 l 1
 520 -2 l 1
 440 38 l 1
 320 -2 l 1
 240 -2 l 1
 120 38 l 1
 40 198 l 1
 40 358 l 1
 120 518 l 1
 240 558 l 1
 320 558 l 1
 400 517.945 l 1
 400 718 l 1
 320 758 l 1
 520 838 l 1
280 518 m 1
 200 478 l 1
 160 278 l 1
 200 78 l 1
 280 38 l 1
 360 78 l 1
 400 158 l 1
 400 398 l 1
 360 478 l 1
 280 518 l 1
EndSplineSet
EndChar
